<?xml version="1.0" encoding="utf-8"?>
<!-- Generator: Adobe Illustrator 14.0.0, SVG Export Plug-In . SVG Version: 6.00 Build 43363)  -->
<!DOCTYPE svg PUBLIC "-//W3C//DTD SVG 1.0//EN" "http://www.w3.org/TR/2001/REC-SVG-20010904/DTD/svg10.dtd">
<svg version="1.0" id="Layer_1" xmlns="http://www.w3.org/2000/svg" xmlns:xlink="http://www.w3.org/1999/xlink" x="0px" y="0px"
	 width="40px" height="40px" viewBox="0 0 40 40" enable-background="new 0 0 40 40" xml:space="preserve">
<circle fill="#13825F" cx="20" cy="20" r="20"/>
<path fill="#FFFFFF" d="M26,8H14c-1.104,0-2,0.896-2,2v16v4c0,1.104,0.896,2,2,2h12c1.104,0,2-0.896,2-2v-4V10
	C28,8.896,27.104,8,26,8z M18.375,28.5c0-0.829,0.672-1.5,1.5-1.5c0.829,0,1.5,0.671,1.5,1.5s-0.671,1.5-1.5,1.5
	C19.047,30,18.375,29.329,18.375,28.5z M14,26V10h12v16H14z"/>
</svg>
