<?xml version="1.0" encoding="utf-8"?>
<!-- Generator: Adobe Illustrator 14.0.0, SVG Export Plug-In . SVG Version: 6.00 Build 43363)  -->
<!DOCTYPE svg PUBLIC "-//W3C//DTD SVG 1.1//EN" "http://www.w3.org/Graphics/SVG/1.1/DTD/svg11.dtd">
<svg version="1.1" id="Layer_1" xmlns="http://www.w3.org/2000/svg" xmlns:xlink="http://www.w3.org/1999/xlink" x="0px" y="0px"
	 width="40px" height="40px" viewBox="0 0 40 40" enable-background="new 0 0 40 40" xml:space="preserve">
<circle fill="#13825F" cx="20" cy="20" r="20"/>
<path fill="#FFFFFF" d="M32.13,11.851c-0.342,3.588-1.819,12.296-2.571,16.315c-0.318,1.7-0.945,2.271-1.551,2.327
	c-1.317,0.121-2.318-0.872-3.595-1.708c-1.997-1.309-3.126-2.124-5.064-3.401c-2.24-1.477-0.788-2.288,0.489-3.615
	c0.334-0.347,6.14-5.628,6.252-6.107c0.015-0.06,0.027-0.284-0.105-0.401c-0.133-0.118-0.328-0.078-0.47-0.046
	c-0.2,0.045-3.392,2.154-9.572,6.326c-0.906,0.623-1.726,0.925-2.461,0.909c-0.811-0.018-2.369-0.458-3.527-0.835
	c-1.421-0.461-2.551-0.705-2.453-1.49c0.051-0.409,0.614-0.827,1.688-1.254c6.615-2.882,11.026-4.782,13.234-5.7
	c6.301-2.621,7.611-3.077,8.465-3.092c0.188-0.003,0.606,0.043,0.879,0.264c0.181,0.158,0.296,0.377,0.323,0.615
	C32.138,11.253,32.15,11.553,32.13,11.851z"/>
</svg>
