<?xml version="1.0" encoding="utf-8"?>
<!-- Generator: Adobe Illustrator 14.0.0, SVG Export Plug-In . SVG Version: 6.00 Build 43363)  -->
<!DOCTYPE svg PUBLIC "-//W3C//DTD SVG 1.1//EN" "http://www.w3.org/Graphics/SVG/1.1/DTD/svg11.dtd">
<svg version="1.1" id="Layer_1" xmlns="http://www.w3.org/2000/svg" xmlns:xlink="http://www.w3.org/1999/xlink" x="0px" y="0px"
	 width="40px" height="40px" viewBox="0 0 40 40" enable-background="new 0 0 40 40" xml:space="preserve">
<circle fill="#13825F" cx="20" cy="20" r="20"/>
<path id="bird" fill="#FFFFFF" d="M31.558,13.997c0.018,0.256,0.018,0.512,0.018,0.771c0,7.872-5.992,16.95-16.95,16.95v-0.005
	c-3.237,0.005-6.406-0.923-9.131-2.67c0.471,0.056,0.944,0.084,1.418,0.086c2.682,0.002,5.288-0.898,7.398-2.556
	c-2.549-0.048-4.784-1.71-5.565-4.137c0.893,0.173,1.813,0.137,2.689-0.104c-2.779-0.561-4.778-3.002-4.778-5.838
	c0-0.025,0-0.05,0-0.075c0.828,0.461,1.755,0.717,2.704,0.745c-2.618-1.749-3.424-5.231-1.844-7.954
	c3.024,3.722,7.487,5.984,12.277,6.224c-0.48-2.069,0.176-4.237,1.723-5.691c2.399-2.255,6.173-2.14,8.429,0.258
	c1.334-0.263,2.612-0.752,3.782-1.446c-0.444,1.379-1.376,2.55-2.618,3.294c1.181-0.139,2.334-0.455,3.421-0.938
	C33.73,12.109,32.724,13.153,31.558,13.997z"/>
</svg>
